<mxfile host="65bd71144e">
    <diagram id="L4p5tujYEG0hYHjcZJab" name="Page-1">
        <mxGraphModel dx="852" dy="487" grid="1" gridSize="10" guides="1" tooltips="1" connect="1" arrows="1" fold="1" page="1" pageScale="1" pageWidth="850" pageHeight="1100" math="0" shadow="0">
            <root>
                <mxCell id="0"/>
                <mxCell id="1" parent="0"/>
                <mxCell id="2" value="Backup AWS Region" style="whiteSpace=wrap;strokeWidth=2;verticalAlign=top;" vertex="1" parent="1">
                    <mxGeometry x="20" y="45" width="985" height="543" as="geometry"/>
                </mxCell>
                <mxCell id="3" value="Application Load Balancer" style="whiteSpace=wrap;strokeWidth=2;" vertex="1" parent="2">
                    <mxGeometry x="331" y="186" width="204" height="34" as="geometry"/>
                </mxCell>
                <mxCell id="4" value="Web Servers (Backup)" style="whiteSpace=wrap;strokeWidth=2;verticalAlign=top;" vertex="1" parent="2">
                    <mxGeometry x="53" y="33" width="752" height="212" as="geometry"/>
                </mxCell>
                <mxCell id="5" value="EC2 Instance 1" style="whiteSpace=wrap;strokeWidth=2;" vertex="1" parent="2">
                    <mxGeometry x="88" y="58" width="119" height="34" as="geometry"/>
                </mxCell>
                <mxCell id="6" value="EC2 Instance 2" style="whiteSpace=wrap;strokeWidth=2;" vertex="1" parent="2">
                    <mxGeometry x="445" y="58" width="119" height="34" as="geometry"/>
                </mxCell>
                <mxCell id="7" value="Target Group" style="whiteSpace=wrap;strokeWidth=2;" vertex="1" parent="2">
                    <mxGeometry x="63" y="339" width="109" height="34" as="geometry"/>
                </mxCell>
                <mxCell id="8" value="Shield Protection" style="whiteSpace=wrap;strokeWidth=2;" vertex="1" parent="2">
                    <mxGeometry x="262" y="339" width="138" height="34" as="geometry"/>
                </mxCell>
                <mxCell id="9" value="WAF Rules" style="whiteSpace=wrap;strokeWidth=2;" vertex="1" parent="2">
                    <mxGeometry x="490" y="339" width="89" height="34" as="geometry"/>
                </mxCell>
                <mxCell id="10" value="MySQL Oracle Server Backup" style="whiteSpace=wrap;strokeWidth=2;" vertex="1" parent="2">
                    <mxGeometry x="675" y="339" width="219" height="34" as="geometry"/>
                </mxCell>
                <mxCell id="11" value="MySQL Oracle Server 2 Backup" style="whiteSpace=wrap;strokeWidth=2;" vertex="1" parent="2">
                    <mxGeometry x="669" y="467" width="232" height="34" as="geometry"/>
                </mxCell>
                <mxCell id="12" value="Route 53" style="whiteSpace=wrap;strokeWidth=2;" vertex="1" parent="2">
                    <mxGeometry x="860" y="58" width="78" height="34" as="geometry"/>
                </mxCell>
                <mxCell id="13" value="Load Balancer (Backup)" style="whiteSpace=wrap;strokeWidth=2;verticalAlign=top;" vertex="1" parent="2">
                    <mxGeometry x="28" y="314" width="179" height="84" as="geometry"/>
                </mxCell>
                <mxCell id="14" value="AWS Shield (Backup)" style="whiteSpace=wrap;strokeWidth=2;verticalAlign=top;" vertex="1" parent="2">
                    <mxGeometry x="227" y="314" width="208" height="84" as="geometry"/>
                </mxCell>
                <mxCell id="15" value="AWS WAF (Backup)" style="whiteSpace=wrap;strokeWidth=2;verticalAlign=top;" vertex="1" parent="2">
                    <mxGeometry x="455" y="314" width="159" height="84" as="geometry"/>
                </mxCell>
                <mxCell id="16" value="MySQL Oracle Server (Backup)" style="whiteSpace=wrap;strokeWidth=2;verticalAlign=top;" vertex="1" parent="2">
                    <mxGeometry x="634" y="314" width="302" height="212" as="geometry"/>
                </mxCell>
                <mxCell id="17" value="Route 53 (Backup)" style="whiteSpace=wrap;strokeWidth=2;verticalAlign=top;" vertex="1" parent="2">
                    <mxGeometry x="825" y="33" width="148" height="84" as="geometry"/>
                </mxCell>
                <mxCell id="18" value="Port 443" style="curved=1;startArrow=none;endArrow=block;exitX=0.4999179359243697;exitY=1;entryX=0.036932578705025663;entryY=0;rounded=0;" edge="1" parent="2" source="5" target="3">
                    <mxGeometry relative="1" as="geometry">
                        <Array as="points">
                            <mxPoint x="147" y="152"/>
                        </Array>
                    </mxGeometry>
                </mxCell>
                <mxCell id="19" value="Port 443" style="curved=1;startArrow=none;endArrow=block;exitX=0.5030856092436975;exitY=1;entryX=0.615212438130592;entryY=0;rounded=0;" edge="1" parent="2" source="6" target="3">
                    <mxGeometry relative="1" as="geometry">
                        <Array as="points">
                            <mxPoint x="505" y="152"/>
                        </Array>
                    </mxGeometry>
                </mxCell>
                <mxCell id="20" value="443" style="curved=1;startArrow=none;endArrow=block;exitX=-0.0009574142156862745;exitY=0.8993949688185777;entryX=0.5009676032110092;entryY=0;rounded=0;" edge="1" parent="2" source="3" target="7">
                    <mxGeometry relative="1" as="geometry">
                        <Array as="points">
                            <mxPoint x="118" y="245"/>
                        </Array>
                    </mxGeometry>
                </mxCell>
                <mxCell id="21" value="DDoS Protection" style="curved=1;startArrow=none;endArrow=block;exitX=0.2967236373716153;exitY=1;entryX=0.5002264492753623;entryY=0;rounded=0;" edge="1" parent="2" source="3" target="8">
                    <mxGeometry relative="1" as="geometry">
                        <Array as="points">
                            <mxPoint x="331" y="245"/>
                        </Array>
                    </mxGeometry>
                </mxCell>
                <mxCell id="22" value="Web Application Firewall" style="curved=1;startArrow=none;endArrow=block;exitX=0.7000594508636788;exitY=1;entryX=0.4978932584269663;entryY=0;rounded=0;" edge="1" parent="2" source="3" target="9">
                    <mxGeometry relative="1" as="geometry">
                        <Array as="points">
                            <mxPoint x="534" y="245"/>
                        </Array>
                    </mxGeometry>
                </mxCell>
                <mxCell id="23" value="Replication" style="curved=1;startArrow=none;endArrow=block;exitX=0.5019798801369864;exitY=1;entryX=0.4997137661637931;entryY=0;rounded=0;" edge="1" parent="2" source="10" target="11">
                    <mxGeometry relative="1" as="geometry">
                        <Array as="points"/>
                    </mxGeometry>
                </mxCell>
                <mxCell id="24" value="Database Connection" style="curved=1;startArrow=none;endArrow=block;exitX=0.9977405024509803;exitY=0.857222856762661;entryX=0.5019798801369864;entryY=0;rounded=0;" edge="1" parent="2" source="3" target="10">
                    <mxGeometry relative="1" as="geometry">
                        <Array as="points">
                            <mxPoint x="785" y="245"/>
                        </Array>
                    </mxGeometry>
                </mxCell>
                <mxCell id="25" value="TCP/443" style="curved=1;startArrow=none;endArrow=block;exitX=0.4970452724358974;exitY=1;entryX=0.9977405024509803;entryY=0.01578282828282842;rounded=0;" edge="1" parent="2" source="12" target="3">
                    <mxGeometry relative="1" as="geometry">
                        <Array as="points">
                            <mxPoint x="899" y="117"/>
                            <mxPoint x="751" y="152"/>
                        </Array>
                    </mxGeometry>
                </mxCell>
                <mxCell id="26" value="Application Load Balancer" style="rounded=0;whiteSpace=wrap;html=1;" vertex="1" parent="2">
                    <mxGeometry x="315" y="190" width="235" height="30" as="geometry"/>
                </mxCell>
                <mxCell id="27" value="MySQL Oracle Server Backup" style="rounded=0;whiteSpace=wrap;html=1;" vertex="1" parent="2">
                    <mxGeometry x="666" y="339" width="235" height="30" as="geometry"/>
                </mxCell>
                <mxCell id="28" value="MySQL Oracle Server 2 Backup" style="rounded=0;whiteSpace=wrap;html=1;" vertex="1" parent="2">
                    <mxGeometry x="675" y="475" width="235" height="30" as="geometry"/>
                </mxCell>
                <mxCell id="29" value="Target Group" style="rounded=0;whiteSpace=wrap;html=1;" vertex="1" parent="2">
                    <mxGeometry x="53" y="343" width="137" height="30" as="geometry"/>
                </mxCell>
                <mxCell id="30" value="Shield Protection" style="rounded=0;whiteSpace=wrap;html=1;" vertex="1" parent="2">
                    <mxGeometry x="268" y="343" width="137" height="30" as="geometry"/>
                </mxCell>
                <mxCell id="31" value="WAF Rules" style="rounded=0;whiteSpace=wrap;html=1;" vertex="1" parent="2">
                    <mxGeometry x="466" y="343" width="137" height="30" as="geometry"/>
                </mxCell>
                <mxCell id="32" value="Route 53" style="rounded=0;whiteSpace=wrap;html=1;" vertex="1" parent="2">
                    <mxGeometry x="845.5" y="60" width="107" height="30" as="geometry"/>
                </mxCell>
                <mxCell id="33" value="Primary AWS Region" style="whiteSpace=wrap;strokeWidth=2;verticalAlign=top;" vertex="1" parent="1">
                    <mxGeometry x="93" y="663" width="1102" height="543" as="geometry"/>
                </mxCell>
                <mxCell id="34" value="Web Servers" style="whiteSpace=wrap;strokeWidth=2;verticalAlign=top;" vertex="1" parent="1">
                    <mxGeometry x="163" y="688" width="845" height="212" as="geometry"/>
                </mxCell>
                <mxCell id="35" value="Load Balancer" style="whiteSpace=wrap;strokeWidth=2;verticalAlign=top;" vertex="1" parent="1">
                    <mxGeometry x="200" y="969" width="179" height="84" as="geometry"/>
                </mxCell>
                <mxCell id="36" value="AWS Shield" style="whiteSpace=wrap;strokeWidth=2;verticalAlign=top;" vertex="1" parent="1">
                    <mxGeometry x="400" y="969" width="208" height="84" as="geometry"/>
                </mxCell>
                <mxCell id="37" value="AWS WAF" style="whiteSpace=wrap;strokeWidth=2;verticalAlign=top;" vertex="1" parent="1">
                    <mxGeometry x="627" y="969" width="159" height="84" as="geometry"/>
                </mxCell>
                <mxCell id="38" value="MySQL Oracle Server" style="whiteSpace=wrap;strokeWidth=2;verticalAlign=top;" vertex="1" parent="1">
                    <mxGeometry x="806" y="969" width="246" height="212" as="geometry"/>
                </mxCell>
                <mxCell id="39" value="Route 53 (Primary)" style="whiteSpace=wrap;strokeWidth=2;verticalAlign=top;" vertex="1" parent="1">
                    <mxGeometry x="1028" y="688" width="148" height="84" as="geometry"/>
                </mxCell>
                <mxCell id="40" value="Route 53" style="whiteSpace=wrap;strokeWidth=2;" vertex="1" parent="1">
                    <mxGeometry x="1063" y="713" width="78" height="34" as="geometry"/>
                </mxCell>
                <mxCell id="41" value="MySQL Oracle Server 2" style="whiteSpace=wrap;strokeWidth=2;" vertex="1" parent="1">
                    <mxGeometry x="841" y="1122" width="176" height="34" as="geometry"/>
                </mxCell>
                <mxCell id="42" value="MySQL Oracle Server" style="whiteSpace=wrap;strokeWidth=2;" vertex="1" parent="1">
                    <mxGeometry x="847" y="994" width="164" height="34" as="geometry"/>
                </mxCell>
                <mxCell id="43" value="WAF Rules" style="whiteSpace=wrap;strokeWidth=2;" vertex="1" parent="1">
                    <mxGeometry x="662" y="994" width="89" height="34" as="geometry"/>
                </mxCell>
                <mxCell id="44" value="Shield Protection" style="whiteSpace=wrap;strokeWidth=2;" vertex="1" parent="1">
                    <mxGeometry x="435" y="994" width="138" height="34" as="geometry"/>
                </mxCell>
                <mxCell id="45" value="Target Group" style="whiteSpace=wrap;strokeWidth=2;" vertex="1" parent="1">
                    <mxGeometry x="235" y="994" width="109" height="34" as="geometry"/>
                </mxCell>
                <mxCell id="46" value="Application Load Balancer" style="whiteSpace=wrap;strokeWidth=2;" vertex="1" parent="1">
                    <mxGeometry x="474" y="841" width="204" height="34" as="geometry"/>
                </mxCell>
                <mxCell id="47" value="EC2 Instance 1" style="whiteSpace=wrap;strokeWidth=2;" vertex="1" parent="1">
                    <mxGeometry x="277" y="713" width="119" height="34" as="geometry"/>
                </mxCell>
                <mxCell id="48" value="EC2 Instance 2" style="whiteSpace=wrap;strokeWidth=2;" vertex="1" parent="1">
                    <mxGeometry x="577" y="713" width="119" height="34" as="geometry"/>
                </mxCell>
                <mxCell id="49" value="Internet" style="whiteSpace=wrap;strokeWidth=2;verticalAlign=top;" vertex="1" parent="1">
                    <mxGeometry x="1040" y="20" width="124" height="593" as="geometry"/>
                </mxCell>
                <mxCell id="50" value="Users" style="whiteSpace=wrap;strokeWidth=2;" vertex="1" parent="1">
                    <mxGeometry x="1075" y="300" width="54" height="34" as="geometry"/>
                </mxCell>
                <mxCell id="51" value="Port 443" style="curved=1;startArrow=none;endArrow=block;exitX=0.5020023634453782;exitY=1;entryX=0.11344159364291839;entryY=0;rounded=0;" edge="1" parent="1" source="47" target="46">
                    <mxGeometry relative="1" as="geometry">
                        <Array as="points">
                            <mxPoint x="337" y="807"/>
                        </Array>
                    </mxGeometry>
                </mxCell>
                <mxCell id="52" value="Port 443" style="curved=1;startArrow=none;endArrow=block;exitX=0.502593224789916;exitY=1;entryX=0.5989922611186465;entryY=0;rounded=0;" edge="1" parent="1" source="48" target="46">
                    <mxGeometry relative="1" as="geometry">
                        <Array as="points">
                            <mxPoint x="637" y="807"/>
                        </Array>
                    </mxGeometry>
                </mxCell>
                <mxCell id="53" value="443" style="curved=1;startArrow=none;endArrow=block;exitX=0.001541436887254902;exitY=0.9395685367501067;entryX=0.5037629013761468;entryY=0;rounded=0;" edge="1" parent="1" source="46" target="45">
                    <mxGeometry relative="1" as="geometry">
                        <Array as="points">
                            <mxPoint x="290" y="900"/>
                        </Array>
                    </mxGeometry>
                </mxCell>
                <mxCell id="54" value="DDoS Protection" style="curved=1;startArrow=none;endArrow=block;exitX=0.3563552699725726;exitY=1;entryX=0.4951879528985507;entryY=0;rounded=0;" edge="1" parent="1" source="46" target="44">
                    <mxGeometry relative="1" as="geometry">
                        <Array as="points">
                            <mxPoint x="503" y="900"/>
                        </Array>
                    </mxGeometry>
                </mxCell>
                <mxCell id="55" value="Web Application Firewall" style="curved=1;startArrow=none;endArrow=block;exitX=0.7596910834646357;exitY=1;entryX=0.5013167134831461;entryY=0;rounded=0;" edge="1" parent="1" source="46" target="43">
                    <mxGeometry relative="1" as="geometry">
                        <Array as="points">
                            <mxPoint x="707" y="900"/>
                        </Array>
                    </mxGeometry>
                </mxCell>
                <mxCell id="56" value="Replication" style="curved=1;startArrow=none;endArrow=block;exitX=0.5014291158536586;exitY=1;entryX=0.5013316761363636;entryY=0;rounded=0;" edge="1" parent="1" source="42" target="41">
                    <mxGeometry relative="1" as="geometry">
                        <Array as="points"/>
                    </mxGeometry>
                </mxCell>
                <mxCell id="57" value="Database Connection" style="curved=1;startArrow=none;endArrow=block;exitX=1.0002393535539216;exitY=0.8564224979669528;entryX=0.5014291158536586;entryY=0;rounded=0;" edge="1" parent="1" source="46" target="42">
                    <mxGeometry relative="1" as="geometry">
                        <Array as="points">
                            <mxPoint x="929" y="900"/>
                        </Array>
                    </mxGeometry>
                </mxCell>
                <mxCell id="58" value="TCP/443" style="curved=1;startArrow=none;endArrow=block;exitX=0.49363982371794873;exitY=1;entryX=0.9712016310620121;entryY=0;rounded=0;" edge="1" parent="1" source="40" target="46">
                    <mxGeometry relative="1" as="geometry">
                        <Array as="points">
                            <mxPoint x="1102" y="772"/>
                            <mxPoint x="867" y="807"/>
                        </Array>
                    </mxGeometry>
                </mxCell>
                <mxCell id="59" value="" style="curved=1;startArrow=none;endArrow=block;exitX=0.4908130787037037;exitY=0.9852941176470589;entryX=0.49363982371794873;entryY=0;rounded=0;" edge="1" parent="1" source="50" target="40">
                    <mxGeometry relative="1" as="geometry">
                        <Array as="points"/>
                    </mxGeometry>
                </mxCell>
            </root>
        </mxGraphModel>
    </diagram>
</mxfile>